<?xml version="1.0" encoding="UTF-8" standalone="no"?>
<svg width="254px" height="137px" viewBox="0 0 254 137" version="1.1" xmlns="http://www.w3.org/2000/svg" xmlns:xlink="http://www.w3.org/1999/xlink">
    <!-- Generator: Sketch 47.1 (45422) - http://www.bohemiancoding.com/sketch -->
    <title>Group 22</title>
    <desc>Created with Sketch.</desc>
    <defs>
        <rect id="path-1" x="152" y="4" width="6" height="9" rx="3"></rect>
        <rect id="path-2" x="144" y="43" width="10" height="7" rx="3.5"></rect>
        <rect id="path-3" x="31" y="45" width="10" height="5" rx="2.5"></rect>
        <rect id="path-4" x="39" y="26" width="6" height="17" rx="3"></rect>
        <rect id="path-5" x="77" y="39" width="27" height="9"></rect>
    </defs>
    <g id="Page-1" stroke="none" stroke-width="1" fill="none" fill-rule="evenodd">
        <g id="Group-22" transform="translate(0.000000, 1.000000)">
            <g id="Group-5-Copy">
                <g id="Group" transform="translate(38.000000, 31.000000)" stroke="#0056A3" stroke-width="2">
                    <path d="M36.0059998,95 C35.0617523,95 34.1726102,94.5603478 33.6060617,93.8133077 L7.74672767,57.7319287 L6.79875209,56.4206338 C-3.95678833,41.6672427 -1.73783683,21.2686774 11.9446326,9.11514747 C25.627102,-3.03838249 46.372898,-3.03838249 60.0553674,9.11514747 C73.7378368,21.2686774 75.9567883,41.6672427 65.2012479,56.4206338 L63.9472802,58.1413376 L38.405938,93.8133077 C37.8393895,94.5603478 36.9502474,95 36.0059998,95 L36.0059998,95 Z" id="location.svg-path" fill="#78C5F3"></path>
                    <circle id="Oval-8" fill="#FFFFFF" cx="36.5" cy="36.5" r="14.5"></circle>
                </g>
                <g id="Group-2" transform="translate(43.000000, 70.000000)">
                    <ellipse id="Oval-6" stroke="#0056A3" stroke-width="2" fill="#D80A8B" cx="151.5" cy="37" rx="2.5" ry="3"></ellipse>
                    <path d="M47.2558594,47.4746094 L34.5503273,47.4746094 L34.5503273,16.8691187 C34.4741325,12.699537 35.2255859,9.21744792 36.8046875,6.42285156 C38.3837891,3.62825521 40.9729818,1.74251302 44.5722656,0.765625 L134.751365,0.765625 C139.742317,1.48111979 143.540365,3.79801432 146.145508,7.71630859 C148.750651,11.6346029 150.365234,16.2978516 150.989258,21.7060547 L150.989258,47.4746094 L133.772914,47.4746094 L47.2558594,47.4746094 Z" id="Path-4" stroke="#0056A3" stroke-width="2" fill="#E8F6FC"></path>
                    <polygon id="Rectangle-17" fill="#0880C7" points="35.3256836 22.8676758 118.883789 22.7348633 150.464355 30.9272461 149.956543 46.6210938 35.5766602 46.7983398"></polygon>
                    <rect id="Rectangle-18" fill="#FFFFFF" x="51" y="5" width="83" height="7" rx="3.5"></rect>
                    <rect id="Rectangle" fill="#0056A3" x="35" y="21" width="84" height="2"></rect>
                    <polygon id="Rectangle-Copy" fill="#0056A3" transform="translate(134.277887, 25.914484) rotate(14.000000) translate(-134.277887, -25.914484) " points="117.456227 24.8441304 151.42909 25.0514303 151.601657 26.9848378 116.954117 26.7862298"></polygon>
                    <rect id="Rectangle-2-Copy" fill="#0C5BA5" x="92" y="0" width="2" height="22"></rect>
                    <rect id="Rectangle-2-Copy-3" fill="#0C5BA5" x="64" y="0" width="2" height="22"></rect>
                    <rect id="Rectangle-2-Copy-2" fill="#0C5BA5" x="117" y="0" width="2" height="22"></rect>
                    <g id="Rectangle-3">
                        <use fill="#D80A8B" fill-rule="evenodd" xlink:href="#path-1"></use>
                        <rect stroke="#0056A3" stroke-width="2" x="153" y="5" width="4" height="7" rx="2"></rect>
                    </g>
                    <g id="Rectangle-3-Copy-2">
                        <use fill="#FFFFFF" fill-rule="evenodd" xlink:href="#path-2"></use>
                        <rect stroke="#0056A3" stroke-width="2" x="145" y="44" width="8" height="5" rx="2.5"></rect>
                    </g>
                    <g id="Rectangle-3-Copy-3">
                        <use fill="#FFFFFF" fill-rule="evenodd" xlink:href="#path-3"></use>
                        <rect stroke="#0056A3" stroke-width="2" x="32" y="46" width="8" height="3" rx="1.5"></rect>
                    </g>
                    <g id="Rectangle-3-Copy">
                        <use fill="#D80A8B" fill-rule="evenodd" xlink:href="#path-4"></use>
                        <rect stroke="#0056A3" stroke-width="2" x="40" y="27" width="4" height="15" rx="2"></rect>
                    </g>
                    <rect id="Rectangle-9" fill="#0056A3" x="0" y="57" width="211" height="2"></rect>
                    <circle id="Oval-2" stroke="#0056A3" stroke-width="2" fill="#5AB1E5" cx="60" cy="49" r="9"></circle>
                    <path d="M69.12024,40.0842558 C67.0612118,37.3004862 63.7544604,35.4955254 60.0261378,35.4955254 C56.1388718,35.4955254 52.7098874,37.4576625 50.675565,40.4455561" id="Oval-2-Copy-4" stroke="#0056A3" stroke-width="2" stroke-linecap="round" stroke-linejoin="round"></path>
                    <circle id="Oval-2-Copy" stroke="#0056A3" stroke-width="2" fill="#5AB1E5" cx="121" cy="49" r="9"></circle>
                    <circle id="Oval-2-Copy-2" stroke="#0056A3" stroke-width="2" fill="#FFFFFF" cx="60" cy="49" r="3"></circle>
                    <circle id="Oval-2-Copy-3" stroke="#0056A3" stroke-width="2" fill="#FFFFFF" cx="121" cy="49" r="3"></circle>
                    <rect id="Rectangle-10" fill="#0056A3" x="144" y="4" width="12" height="2"></rect>
                    <g id="Rectangle-15">
                        <use fill="#D80A8B" fill-rule="evenodd" xlink:href="#path-5"></use>
                        <rect stroke="#0056A3" stroke-width="2" x="78" y="40" width="25" height="7"></rect>
                    </g>
                    <polyline id="Path-18" stroke="#0056A3" stroke-width="2" stroke-linecap="round" stroke-linejoin="round" points="86.0766602 26.0932617 117.632743 26.0932617 132.597168 30.1293945"></polyline>
                </g>
                <g id="Group-4" transform="translate(203.000000, 81.000000)" stroke="#0056A3" stroke-width="2">
                    <path d="M13.5,34 C20.9558441,34 27,27.9558441 27,20.5 C27,13.0441559 20.25,0.985351562 13.5,0.985351562 C6.75,0.985351562 0,13.0441559 0,20.5 C0,27.9558441 6.04415588,34 13.5,34 Z" id="Oval-11" fill="#5AB1E5"></path>
                    <path d="M14.3798828,46.7568359 L14.3798828,12.3496094" id="Path-19" stroke-linecap="round" stroke-linejoin="round"></path>
                    <path d="M14.581543,25.8579102 L20.5019531,22.0488281" id="Path-20" stroke-linecap="round" stroke-linejoin="round"></path>
                </g>
                <g id="Page-1" transform="translate(107.000000, 0.000000)">
                    <path d="M7.2256,14.604 C8.2926,14.604 9.2976,14.874 10.1776,15.347 C11.8596,11.642 15.5826,9.06 19.9166,9.06 C21.5776,9.06 23.1456,9.449 24.5486,10.125 C26.9286,4.751 32.3056,1 38.5626,1 C45.0076,1 50.5196,4.982 52.7836,10.618 C53.8446,10.275 54.9886,10.079 56.1876,10.079 C61.5906,10.079 65.9696,13.88 65.9696,18.567 C65.9696,23.254 61.5906,27.055 56.1876,27.055 L7.2256,27.055 C3.7866,27.055 0.9996,24.268 0.9996,20.829 C0.9996,17.391 3.7866,14.604 7.2256,14.604" id="Fill-1" fill="#E8F6FC"></path>
                    <path d="M20.288,27.555 L6.975,27.555 C3.129,27.555 0,24.426 0,20.579 C0,16.733 3.129,13.604 6.975,13.604 C7.869,13.604 8.756,13.777 9.58,14.108 C11.562,10.41 15.443,8.06 19.667,8.06 C21.135,8.06 22.566,8.34 23.933,8.893 C26.644,3.467 32.208,0 38.312,0 C41.286,0 44.189,0.819 46.71,2.367 C47.063,2.584 47.173,3.046 46.956,3.399 C46.74,3.752 46.278,3.862 45.925,3.645 C43.641,2.242 41.008,1.5 38.312,1.5 C32.551,1.5 27.319,4.907 24.984,10.179 C24.902,10.365 24.748,10.509 24.558,10.579 C24.367,10.65 24.156,10.639 23.974,10.551 C22.607,9.893 21.158,9.56 19.667,9.56 C15.777,9.56 12.222,11.855 10.61,15.408 C10.524,15.597 10.363,15.742 10.166,15.809 C9.97,15.874 9.753,15.857 9.57,15.758 C8.778,15.33 7.881,15.104 6.975,15.104 C3.956,15.104 1.5,17.56 1.5,20.579 C1.5,23.598 3.956,26.055 6.975,26.055 L20.288,26.055 C20.702,26.055 21.038,26.391 21.038,26.805 C21.038,27.219 20.702,27.555 20.288,27.555" id="Fill-1" stroke="#0056A3" stroke-width="0.5" fill="#0056A3"></path>
                    <path d="M55.802,27.476 L26.75,27.476 C26.336,27.476 26,27.14 26,26.726 C26,26.312 26.336,25.976 26.75,25.976 L55.802,25.976 C60.783,25.976 64.835,22.505 64.835,18.239 C64.835,13.972 60.783,10.5 55.802,10.5 C54.73,10.5 53.663,10.669 52.629,11.003 C52.236,11.128 51.812,10.914 51.685,10.519 C51.558,10.125 51.774,9.702 52.169,9.575 C53.351,9.194 54.574,9 55.802,9 C61.61,9 66.335,13.145 66.335,18.239 C66.335,23.332 61.61,27.476 55.802,27.476" id="Fill-3" stroke="#0056A3" stroke-width="0.5" fill="#0056A3"></path>
                </g>
                <g id="Group-3" transform="translate(147.000000, 9.000000)">
                    <path d="M73.2376841,16.708172 C71.9078511,16.708172 70.6527947,17.0388197 69.5608871,17.6231035 C67.4611955,13.0702103 62.8182514,9.8993408 57.4156456,9.8993408 C55.3422957,9.8993408 53.3904578,10.3789892 51.6400067,11.2077012 C48.6727372,4.60730355 41.9708888,0 34.1703349,0 C26.133555,0 19.2626096,4.89107461 16.4397948,11.8120749 C15.1167597,11.3926965 13.6900571,11.1524537 12.1962255,11.1524537 C5.459538,11.1524537 0,15.818353 0,21.5749712 C0,27.3332636 5.459538,32 12.1962255,32 L73.2376841,32 C77.5220406,32 81,28.5746573 81,24.354086 C81,20.1326776 77.5220406,16.708172 73.2376841,16.708172" id="Fill-1" fill="#B9E5FF"></path>
                    <g id="Page-1" transform="translate(1.000000, 0.000000)" stroke="#0056A3" stroke-width="0.5" fill="#0056A3">
                        <path d="M23.7442443,32.8549457 L12.4904661,32.8549457 C5.60323318,32.8549457 -0.0005,27.9566411 -0.0005,21.9352743 C-0.0005,15.9155616 5.60323318,11.017257 12.4904661,11.017257 C13.7607338,11.017257 15.0268665,11.1917534 16.2632274,11.5366113 C19.3239441,4.50878886 26.1756161,0 33.8757872,0 C36.0888318,0 38.2588725,0.373802745 40.3255386,1.11148427 C40.6480675,1.22643688 40.8159479,1.58121869 40.7009953,1.90374761 C40.5860427,2.22627652 40.2296069,2.39415696 39.908732,2.28003134 C37.9760395,1.59031566 35.9457613,1.24049583 33.8757872,1.24049583 C26.496491,1.24049583 19.948327,5.66823897 17.1952533,12.522392 C17.0745117,12.8242459 16.7412318,12.9797214 16.4294538,12.8813087 C15.1451271,12.4678101 13.8194506,12.2577528 12.4904661,12.2577528 C6.28715989,12.2577528 1.23999583,16.5994883 1.23999583,21.9352743 C1.23999583,27.2718874 6.28715989,31.6144498 12.4904661,31.6144498 L23.7442443,31.6144498 C24.0866211,31.6144498 24.3644922,31.8923209 24.3644922,32.2346978 C24.3644922,32.5770746 24.0866211,32.8549457 23.7442443,32.8549457" id="Fill-3"></path>
                        <path d="M71.8982251,32.8549457 L31.2827375,32.8549457 C30.9403606,32.8549457 30.6624895,32.5770746 30.6624895,32.2346978 C30.6624895,31.8923209 30.9403606,31.6144498 31.2827375,31.6144498 L71.8982251,31.6144498 C75.7214332,31.6144498 78.8317698,28.5041133 78.8317698,24.6809051 C78.8317698,20.857697 75.7214332,17.7473604 71.8982251,17.7473604 C70.7511799,17.7473604 69.6140587,18.0343284 68.6100841,18.5760116 C68.4595706,18.6587113 68.2809392,18.6735973 68.1180208,18.6190155 C67.9542753,18.5636067 67.8219558,18.4436921 67.750834,18.2865626 C65.7486737,13.8728784 61.3325086,11.020565 56.4995368,11.020565 C54.649544,11.020565 52.848344,11.4348906 51.1463838,12.2519639 C50.8370868,12.3999964 50.467419,12.2693308 50.3185595,11.9608608 C50.170527,11.6523909 50.3003656,11.2818961 50.6096626,11.1330366 C52.4803303,10.2349176 54.4618156,9.78006916 56.4995368,9.78006916 C61.6045906,9.78006916 66.2878759,12.6720784 68.6034681,17.1998882 C69.6363877,16.7450398 70.7627579,16.5068646 71.8982251,16.5068646 C76.4053599,16.5068646 80.0722656,20.1737703 80.0722656,24.6809051 C80.0722656,29.18804 76.4053599,32.8549457 71.8982251,32.8549457" id="Fill-1"></path>
                        <path d="M42.9783803,3.58784475 C42.8874106,3.58784475 42.7947869,3.56716982 42.7071252,3.52499296 C42.478047,3.41334834 42.2456607,3.3066657 42.0116205,3.20411804 C41.6973616,3.0676635 41.5534641,2.70213073 41.6899186,2.38787178 C41.8272001,2.07443983 42.1902519,1.93136931 42.5069919,2.06699686 C42.756745,2.1753335 43.0056712,2.29111311 43.2504624,2.41020071 C43.5581053,2.5598872 43.6862899,2.93120896 43.5366034,3.23967892 C43.4290938,3.45966018 43.2082855,3.58784475 42.9783803,3.58784475" id="Fill-6"></path>
                    </g>
                </g>
                <path d="M190.71042,45.8 L209.779857,45.8" id="Path-21" stroke="#0056A3" stroke-width="1.6" stroke-linecap="round" stroke-linejoin="round"></path>
                <path d="M181.833984,49.8 L200.903422,49.8" id="Path-21-Copy-3" stroke="#0056A3" stroke-width="1.6" stroke-linecap="round" stroke-linejoin="round"></path>
                <path d="M100.227051,74.8 L121.216309,74.8" id="Path-21-Copy-4" stroke="#0056A3" stroke-width="1.6" stroke-linecap="round" stroke-linejoin="round"></path>
                <path d="M18,48.8 L42.361996,48.8" id="Path-21-Copy" stroke="#0056A3" stroke-width="1.6" stroke-linecap="round" stroke-linejoin="round"></path>
                <path d="M27.4189453,55.8 L39.361996,55.8" id="Path-21-Copy-2" stroke="#0056A3" stroke-width="1.6" stroke-linecap="round" stroke-linejoin="round"></path>
                <path d="M234,127.841078 L234,109" id="Path-22" stroke="#0056A3" stroke-width="2"></path>
                <circle id="Oval" stroke="#0056A3" stroke-width="2" fill="#D80A8B" cx="234" cy="109" r="8"></circle>
                <g id="Page-1" transform="translate(0.000000, 134.000000)">
                    <path d="M5,2 L1,2 C0.447333333,2 0,1.552 0,1 C0,0.448 0.447333333,0 1,0 L5,0 C5.55266667,0 6,0.448 6,1 C6,1.552 5.55266667,2 5,2" id="Fill-1" fill="#FFFFFF"></path>
                    <path d="M22.5580173,2 L14.0458112,2 C13.4678262,2 13,1.552 13,1 C13,0.448 13.4678262,0 14.0458112,0 L22.5580173,0 C23.1360023,0 23.6038285,0.448 23.6038285,1 C23.6038285,1.552 23.1360023,2 22.5580173,2 M39.5824294,2 L31.0702233,2 C30.4922383,2 30.0244121,1.552 30.0244121,1 C30.0244121,0.448 30.4922383,0 31.0702233,0 L39.5824294,0 C40.1604144,0 40.6282406,0.448 40.6282406,1 C40.6282406,1.552 40.1604144,2 39.5824294,2 M56.6075387,2 L48.0946354,2 C47.5173477,2 47.0488242,1.552 47.0488242,1 C47.0488242,0.448 47.5173477,0 48.0946354,0 L56.6075387,0 C57.1855237,0 57.6533499,0.448 57.6533499,1 C57.6533499,1.552 57.1855237,2 56.6075387,2 M73.6319508,2 L65.1197448,2 C64.5417598,2 64.0739336,1.552 64.0739336,1 C64.0739336,0.448 64.5417598,0 65.1197448,0 L73.6319508,0 C74.2099358,0 74.677762,0.448 74.677762,1 C74.677762,1.552 74.2099358,2 73.6319508,2 M90.6570601,2 L82.1448541,2 C81.5668691,2 81.0990429,1.552 81.0990429,1 C81.0990429,0.448 81.5668691,0 82.1448541,0 L90.6570601,0 C91.2343479,0 91.7028714,0.448 91.7028714,1 C91.7028714,1.552 91.2343479,2 90.6570601,2 M107.681472,2 L99.1692662,2 C98.5919784,2 98.123455,1.552 98.123455,1 C98.123455,0.448 98.5919784,0 99.1692662,0 L107.681472,0 C108.259457,0 108.727283,0.448 108.727283,1 C108.727283,1.552 108.259457,2 107.681472,2 M124.706582,2 L116.194376,2 C115.616391,2 115.148564,1.552 115.148564,1 C115.148564,0.448 115.616391,0 116.194376,0 L124.706582,0 C125.283869,0 125.752393,0.448 125.752393,1 C125.752393,1.552 125.283869,2 124.706582,2 M141.731691,2 L133.218788,2 C132.6415,2 132.172976,1.552 132.172976,1 C132.172976,0.448 132.6415,0 133.218788,0 L141.731691,0 C142.308979,0 142.777502,0.448 142.777502,1 C142.777502,1.552 142.308979,2 141.731691,2 M158.756103,2 L150.243897,2 C149.665912,2 149.198086,1.552 149.198086,1 C149.198086,0.448 149.665912,0 150.243897,0 L158.756103,0 C159.333391,0 159.801914,0.448 159.801914,1 C159.801914,1.552 159.333391,2 158.756103,2 M175.781212,2 L167.269006,2 C166.691719,2 166.223195,1.552 166.223195,1 C166.223195,0.448 166.691719,0 167.269006,0 L175.781212,0 C176.3585,0 176.827024,0.448 176.827024,1 C176.827024,1.552 176.3585,2 175.781212,2 M192.806322,2 L184.293418,2 C183.715433,2 183.247607,1.552 183.247607,1 C183.247607,0.448 183.715433,0 184.293418,0 L192.806322,0 C193.383609,0 193.852133,0.448 193.852133,1 C193.852133,1.552 193.383609,2 192.806322,2 M209.830734,2 L201.317831,2 C200.740543,2 200.272019,1.552 200.272019,1 C200.272019,0.448 200.740543,0 201.317831,0 L209.830734,0 C210.408022,0 210.876545,0.448 210.876545,1 C210.876545,1.552 210.408022,2 209.830734,2 M226.855146,2 L218.342243,2 C217.764955,2 217.296431,1.552 217.296431,1 C217.296431,0.448 217.764955,0 218.342243,0 L226.855146,0 C227.433131,0 227.900957,0.448 227.900957,1 C227.900957,1.552 227.433131,2 226.855146,2" id="Fill-3" fill="#0853A2"></path>
                </g>
            </g>
        </g>
    </g>
</svg>