<?xml version="1.0" standalone="no"?>
<!DOCTYPE svg PUBLIC "-//W3C//DTD SVG 20010904//EN"
 "http://www.w3.org/TR/2001/REC-SVG-20010904/DTD/svg10.dtd">
<svg version="1.0" xmlns="http://www.w3.org/2000/svg"
 width="475.000000pt" height="475.000000pt" viewBox="0 0 475.000000 475.000000"
 preserveAspectRatio="xMidYMid meet">
<metadata>
Created by potrace 1.16, written by Peter Selinger 2001-2019
</metadata>
<g transform="translate(0.000000,475.000000) scale(0.100000,-0.100000)"
fill="#000000" stroke="none">
<path d="M3200 2458 c0 -1151 -3 -2095 -8 -2099 -4 -4 -51 -23 -105 -43 -505
-188 -1075 -187 -1578 1 l-104 40 -3 2081 c-2 1974 -3 2082 -20 2082 -14 0
-15 2 -2 10 10 7 11 10 2 10 -22 0 -193 -90 -187 -100 3 -5 0 -12 -6 -16 -8
-4 -9 -3 -5 4 10 16 1 15 -35 -3 -16 -9 -27 -20 -24 -25 3 -5 0 -12 -6 -16 -8
-5 -9 -3 -4 6 5 8 3 11 -6 8 -8 -3 -14 -10 -14 -15 0 -6 -4 -15 -9 -20 -5 -5
-6 -3 -2 5 9 15 1 15 -25 1 -11 -5 -17 -14 -14 -18 2 -5 -3 -15 -13 -22 -15
-13 -16 -12 -3 4 7 9 9 17 3 17 -11 0 -39 -31 -34 -37 2 -3 0 -8 -4 -11 -4 -4
-4 -1 1 7 5 9 3 12 -6 9 -8 -3 -14 -10 -14 -15 0 -6 -4 -15 -9 -20 -5 -5 -6
-3 -2 5 11 18 -9 15 -25 -5 -12 -15 -12 -16 1 -8 13 8 13 7 1 -8 -15 -18 -26
-23 -16 -7 3 6 2 10 -3 10 -12 0 -33 -25 -27 -32 3 -3 -2 -11 -12 -19 -11 -9
-14 -10 -9 -1 41 68 -251 -208 -350 -332 -253 -315 -409 -651 -479 -1033 -14
-74 -24 -153 -24 -176 1 -33 3 -28 9 25 34 285 134 597 271 841 59 105 153
245 199 297 17 19 12 8 -13 -25 -224 -303 -364 -628 -428 -990 -27 -153 -36
-456 -20 -616 25 -238 100 -509 199 -721 43 -92 69 -139 137 -254 16 -27 16
-28 0 -9 -9 11 -30 44 -47 73 -33 57 -48 71 -22 20 21 -40 124 -197 171 -258
149 -195 481 -507 703 -659 101 -69 207 -130 196 -113 -4 7 31 -6 78 -30 46
-23 82 -46 79 -51 -3 -6 -1 -7 6 -3 6 4 53 -9 104 -29 527 -204 1130 -201
1648 6 54 22 104 37 111 33 6 -4 8 -3 5 3 -3 5 28 26 69 46 42 21 72 32 68 25
-4 -7 15 1 42 16 80 47 184 115 184 121 0 3 -19 -7 -42 -23 -52 -35 -77 -49
-63 -35 6 5 48 35 95 67 50 34 71 44 50 26 l-35 -32 46 32 c25 17 66 50 90 73
25 23 31 31 15 17 l-31 -25 30 33 c16 18 34 31 40 28 14 -5 214 194 209 208
-3 7 8 23 23 36 l28 25 -25 -30 -25 -30 27 24 c15 13 24 29 22 35 -3 7 6 21
18 32 l23 19 -20 -25 -20 -25 22 18 c12 11 19 24 17 31 -3 7 3 19 13 27 17 13
17 13 3 -6 -14 -18 -14 -19 2 -7 9 8 15 19 12 26 -3 7 3 19 13 27 17 13 17 13
3 -6 -14 -18 -14 -19 2 -7 9 8 15 19 12 27 -3 7 0 16 7 21 8 5 10 3 4 -6 -5
-8 -4 -11 3 -6 6 4 9 13 6 20 -3 8 0 17 7 22 8 5 10 3 4 -6 -5 -8 -4 -11 3 -6
6 4 9 13 6 20 -3 8 0 17 7 22 8 5 10 3 4 -6 -5 -8 -4 -11 3 -6 6 4 9 13 6 20
-3 8 0 17 7 22 8 5 10 3 4 -6 -5 -8 -4 -11 3 -6 6 4 9 12 6 19 -2 7 3 21 12
32 8 11 12 14 8 6 -5 -9 -3 -12 5 -7 6 4 9 11 6 16 -8 13 34 92 45 85 6 -4 7
1 3 11 -4 12 -3 15 5 10 8 -5 10 -1 5 10 -4 12 -3 15 5 10 8 -5 10 -1 5 10 -4
12 -3 15 5 10 8 -5 10 -1 5 10 -3 10 -2 15 3 12 5 -4 10 4 10 15 1 12 20 67
43 122 55 131 104 300 132 460 20 113 23 163 24 380 0 219 -3 266 -24 380 -28
160 -78 333 -132 465 -22 55 -37 105 -33 111 5 8 3 9 -6 4 -10 -6 -12 -4 -7 9
5 11 3 15 -5 10 -8 -5 -9 -2 -5 10 5 11 3 15 -5 10 -8 -5 -9 -2 -5 10 5 11 3
15 -5 10 -8 -5 -9 -2 -5 10 5 11 3 15 -5 10 -8 -5 -9 -2 -5 10 5 11 3 15 -5
10 -8 -5 -9 -2 -5 10 4 10 3 15 -3 11 -11 -7 -53 72 -45 85 3 5 0 12 -6 16 -8
5 -9 3 -4 -6 6 -9 4 -11 -4 -6 -7 5 -10 15 -7 23 3 8 2 11 -4 8 -11 -7 -33 32
-25 45 3 5 0 12 -6 16 -8 5 -9 3 -4 -6 6 -9 4 -11 -4 -6 -7 5 -10 14 -7 22 3
7 0 16 -6 20 -7 5 -8 2 -4 -7 4 -8 -4 0 -18 16 -14 17 -24 35 -22 42 3 6 -3
17 -12 25 -16 12 -16 11 -2 -7 14 -19 14 -19 -3 -6 -10 8 -16 20 -13 27 2 7
-5 20 -17 31 l-22 18 20 -25 20 -25 -23 19 c-12 11 -21 25 -18 32 3 7 -5 20
-17 31 l-22 18 20 -25 20 -25 -28 25 c-15 13 -25 30 -23 37 3 6 -85 100 -196
208 -179 174 -235 222 -212 183 4 -7 -2 -4 -14 6 -26 23 -29 34 -4 15 9 -7 6
-1 -7 14 -27 30 -52 38 -30 10 11 -15 10 -14 -9 1 -24 21 -29 32 -9 20 8 -5 8
-2 -2 9 -14 18 -36 24 -26 7 10 -16 -1 -11 -16 7 -12 15 -12 16 1 8 13 -8 13
-7 1 8 -16 20 -36 23 -25 5 5 -9 2 -9 -9 1 -20 16 -23 26 -4 15 8 -5 8 -2 -2
9 -16 20 -36 23 -25 5 4 -8 3 -10 -2 -5 -5 5 -9 14 -9 19 0 6 -6 13 -14 16 -9
3 -11 0 -6 -9 5 -8 4 -11 -1 -6 -5 5 -9 14 -9 20 0 5 -6 12 -14 15 -9 3 -11 0
-6 -8 5 -9 4 -11 -4 -6 -6 4 -9 11 -6 16 3 5 -3 14 -14 19 -26 14 -34 14 -25
-1 4 -7 3 -8 -5 -4 -6 4 -9 11 -6 16 3 5 -3 14 -14 19 -26 14 -34 14 -25 -1 4
-7 3 -8 -5 -4 -6 4 -9 11 -6 16 5 8 -202 120 -220 120 -2 0 -5 -941 -5 -2092z"/>
</g>
</svg>
