<?xml version="1.0" standalone="no"?>
<!DOCTYPE svg PUBLIC "-//W3C//DTD SVG 20010904//EN"
 "http://www.w3.org/TR/2001/REC-SVG-20010904/DTD/svg10.dtd">
<svg version="1.0" xmlns="http://www.w3.org/2000/svg"
 width="200.000000pt" height="200.000000pt" viewBox="0 0 200.000000 200.000000"
 preserveAspectRatio="xMidYMid meet">
<metadata>
Created by potrace 1.16, written by Peter Selinger 2001-2019
</metadata>
<g transform="translate(0.000000,200.000000) scale(0.100000,-0.100000)"
fill="#000000" stroke="none">
<path d="M150 1113 c-26 -10 -50 -36 -50 -55 0 -10 13 -36 29 -58 32 -45 31
-73 -4 -96 -45 -29 -76 17 -38 58 15 17 15 18 -4 18 -45 0 -71 -69 -34 -90 31
-16 65 -12 102 13 46 30 52 81 15 125 -15 16 -26 37 -26 46 0 20 32 37 50 26
12 -7 12 -11 0 -25 -13 -15 -12 -17 4 -14 28 6 45 37 26 49 -16 10 -46 12 -70
3z"/>
<path d="M1631 1079 c-6 -18 -11 -50 -11 -71 0 -58 -14 -78 -56 -78 -32 0 -35
2 -29 23 l6 22 -17 -22 c-13 -18 -26 -23 -61 -23 -43 0 -45 1 -40 26 l5 26
-22 -27 c-21 -26 -27 -28 -69 -22 -42 6 -48 4 -71 -24 -31 -36 -35 -63 -6 -31
17 18 28 21 64 16 24 -4 52 -2 64 5 13 7 23 7 27 1 3 -5 55 -8 119 -7 127 2
145 10 173 75 22 54 -3 69 -51 31 l-27 -21 5 23 c9 45 16 109 12 109 -2 0 -9
-14 -15 -31z"/>
</g>
</svg>
